<svg width="371" height="64" viewBox="0 0 371 64" fill="none" xmlns="http://www.w3.org/2000/svg">
<g clip-path="url(#clip0_418_41)">
<g filter="url(#filter0_d_418_41)">
<path fill-rule="evenodd" clip-rule="evenodd" d="M50.7948 6.63056C50.999 6.1174 51.5805 5.86693 52.0936 6.07112L58.6086 8.66345C59.1218 8.86763 59.3723 9.44915 59.1681 9.9623L55.2065 19.9184L62.7425 22.917L66.7041 12.9609C66.9083 12.4477 67.4898 12.1973 68.0029 12.4015L74.5179 14.9938C75.0311 15.198 75.2816 15.7795 75.0774 16.2926L71.1158 26.2488L76.048 28.2113C76.5612 28.4155 76.8116 28.997 76.6075 29.5101L69.3142 47.8396C67.7132 51.863 60.2751 52.796 51.8209 50.3652L48.7858 57.9931C48.5816 58.5062 48.0001 58.7567 47.4869 58.5525L41.8093 56.2934C41.2961 56.0892 41.0456 55.5077 41.2498 54.9945L44.2849 47.3667C36.4718 43.3246 31.708 37.5365 33.3089 33.5131L33.3143 33.4997L40.6023 15.1836C40.8065 14.6705 41.388 14.42 41.9011 14.6242L46.8332 16.5867L50.7948 6.63056Z" fill="url(#paint0_linear_418_41)"/>
</g>
<g filter="url(#filter1_d_418_41)">
<path d="M97.728 44.32C96.2347 44.32 94.9227 44.0427 93.792 43.488C92.6827 42.912 91.8187 42.112 91.2 41.088C90.6027 40.0427 90.304 38.816 90.304 37.408V27.232C90.304 25.8027 90.6027 24.576 91.2 23.552C91.8187 22.528 92.6827 21.7387 93.792 21.184C94.9227 20.608 96.2347 20.32 97.728 20.32C99.2427 20.32 100.544 20.608 101.632 21.184C102.741 21.7387 103.605 22.528 104.224 23.552C104.843 24.576 105.152 25.8027 105.152 27.232H101.12C101.12 26.1227 100.821 25.28 100.224 24.704C99.648 24.128 98.816 23.84 97.728 23.84C96.64 23.84 95.7973 24.128 95.2 24.704C94.6027 25.28 94.304 26.112 94.304 27.2V37.408C94.304 38.496 94.6027 39.3387 95.2 39.936C95.7973 40.512 96.64 40.8 97.728 40.8C98.816 40.8 99.648 40.512 100.224 39.936C100.821 39.3387 101.12 38.496 101.12 37.408H105.152C105.152 38.7947 104.843 40.0107 104.224 41.056C103.605 42.1013 102.741 42.912 101.632 43.488C100.544 44.0427 99.2427 44.32 97.728 44.32ZM116.788 44.288C115.294 44.288 113.993 44.0107 112.884 43.456C111.796 42.88 110.942 42.08 110.324 41.056C109.726 40.0107 109.428 38.784 109.428 37.376V33.024C109.428 31.616 109.726 30.4 110.324 29.376C110.942 28.3307 111.796 27.5307 112.884 26.976C113.993 26.4 115.294 26.112 116.788 26.112C118.302 26.112 119.604 26.4 120.692 26.976C121.78 27.5307 122.622 28.3307 123.22 29.376C123.838 30.4 124.148 31.6053 124.148 32.992V37.376C124.148 38.784 123.838 40.0107 123.22 41.056C122.622 42.08 121.78 42.88 120.692 43.456C119.604 44.0107 118.302 44.288 116.788 44.288ZM116.788 40.8C117.854 40.8 118.676 40.512 119.252 39.936C119.849 39.3387 120.148 38.4853 120.148 37.376V33.024C120.148 31.8933 119.849 31.04 119.252 30.464C118.676 29.888 117.854 29.6 116.788 29.6C115.742 29.6 114.921 29.888 114.324 30.464C113.726 31.04 113.428 31.8933 113.428 33.024V37.376C113.428 38.4853 113.726 39.3387 114.324 39.936C114.921 40.512 115.742 40.8 116.788 40.8ZM128.839 44V26.4H132.743V29.76H133.831L132.743 30.688C132.743 29.2373 133.159 28.1067 133.991 27.296C134.844 26.4853 136.007 26.08 137.479 26.08C139.207 26.08 140.583 26.656 141.607 27.808C142.652 28.96 143.175 30.5067 143.175 32.448V44H139.175V32.864C139.175 31.7973 138.898 30.976 138.343 30.4C137.788 29.824 137.01 29.536 136.007 29.536C135.026 29.536 134.247 29.8347 133.671 30.432C133.116 31.0293 132.839 31.8827 132.839 32.992V44H128.839ZM148.027 44V26.4H151.931V29.76H153.019L151.931 30.688C151.931 29.2373 152.347 28.1067 153.179 27.296C154.032 26.4853 155.195 26.08 156.667 26.08C158.395 26.08 159.771 26.656 160.795 27.808C161.84 28.96 162.363 30.5067 162.363 32.448V44H158.363V32.864C158.363 31.7973 158.085 30.976 157.531 30.4C156.976 29.824 156.197 29.536 155.195 29.536C154.213 29.536 153.435 29.8347 152.859 30.432C152.304 31.0293 152.027 31.8827 152.027 32.992V44H148.027ZM174.382 44.32C172.889 44.32 171.587 44.032 170.478 43.456C169.369 42.88 168.505 42.08 167.886 41.056C167.289 40.0107 166.99 38.7947 166.99 37.408V32.992C166.99 31.6053 167.289 30.4 167.886 29.376C168.505 28.3307 169.369 27.52 170.478 26.944C171.587 26.368 172.889 26.08 174.382 26.08C175.854 26.08 177.134 26.368 178.222 26.944C179.331 27.52 180.185 28.3307 180.782 29.376C181.401 30.4 181.71 31.6053 181.71 32.992V36.16H170.862V37.408C170.862 38.6453 171.161 39.584 171.758 40.224C172.355 40.8427 173.241 41.152 174.414 41.152C175.31 41.152 176.035 41.0027 176.59 40.704C177.145 40.384 177.497 39.9253 177.646 39.328H181.582C181.283 40.8427 180.473 42.0587 179.15 42.976C177.849 43.872 176.259 44.32 174.382 44.32ZM177.838 33.92V32.96C177.838 31.744 177.55 30.816 176.974 30.176C176.398 29.5147 175.534 29.184 174.382 29.184C173.23 29.184 172.355 29.5147 171.758 30.176C171.161 30.8373 170.862 31.776 170.862 32.992V33.664L178.126 33.6L177.838 33.92ZM193.634 44.32C192.14 44.32 190.828 44.0427 189.698 43.488C188.588 42.912 187.724 42.112 187.106 41.088C186.487 40.0427 186.178 38.816 186.178 37.408V32.992C186.178 31.5627 186.487 30.336 187.106 29.312C187.724 28.288 188.588 27.4987 189.698 26.944C190.828 26.368 192.14 26.08 193.634 26.08C195.852 26.08 197.623 26.656 198.946 27.808C200.268 28.9387 200.962 30.4853 201.026 32.448H197.026C196.962 31.5307 196.631 30.8267 196.034 30.336C195.458 29.824 194.658 29.568 193.634 29.568C192.567 29.568 191.724 29.8667 191.106 30.464C190.487 31.04 190.178 31.872 190.178 32.96V37.408C190.178 38.496 190.487 39.3387 191.106 39.936C191.724 40.5333 192.567 40.832 193.634 40.832C194.658 40.832 195.458 40.5867 196.034 40.096C196.631 39.584 196.962 38.8693 197.026 37.952H201.026C200.962 39.9147 200.268 41.472 198.946 42.624C197.623 43.7547 195.852 44.32 193.634 44.32ZM214.645 44C212.96 44 211.637 43.5307 210.677 42.592C209.738 41.6533 209.269 40.3627 209.269 38.72V30.016H204.501V26.4H209.269V21.44H213.301V26.4H220.053V30.016H213.301V38.72C213.301 39.8293 213.845 40.384 214.933 40.384H219.733V44H214.645ZM224.745 44V40.352H230.889V30.016H225.545V26.4H234.729V40.352H240.169V44H224.745ZM232.489 23.456C231.678 23.456 231.038 23.2533 230.569 22.848C230.099 22.4213 229.865 21.856 229.865 21.152C229.865 20.448 230.099 19.8933 230.569 19.488C231.038 19.0613 231.678 18.848 232.489 18.848C233.299 18.848 233.939 19.0613 234.409 19.488C234.878 19.8933 235.113 20.448 235.113 21.152C235.113 21.856 234.878 22.4213 234.409 22.848C233.939 23.2533 233.299 23.456 232.489 23.456ZM251.1 44.288C249.607 44.288 248.305 44.0107 247.196 43.456C246.108 42.88 245.255 42.08 244.636 41.056C244.039 40.0107 243.74 38.784 243.74 37.376V33.024C243.74 31.616 244.039 30.4 244.636 29.376C245.255 28.3307 246.108 27.5307 247.196 26.976C248.305 26.4 249.607 26.112 251.1 26.112C252.615 26.112 253.916 26.4 255.004 26.976C256.092 27.5307 256.935 28.3307 257.532 29.376C258.151 30.4 258.46 31.6053 258.46 32.992V37.376C258.46 38.784 258.151 40.0107 257.532 41.056C256.935 42.08 256.092 42.88 255.004 43.456C253.916 44.0107 252.615 44.288 251.1 44.288ZM251.1 40.8C252.167 40.8 252.988 40.512 253.564 39.936C254.161 39.3387 254.46 38.4853 254.46 37.376V33.024C254.46 31.8933 254.161 31.04 253.564 30.464C252.988 29.888 252.167 29.6 251.1 29.6C250.055 29.6 249.233 29.888 248.636 30.464C248.039 31.04 247.74 31.8933 247.74 33.024V37.376C247.74 38.4853 248.039 39.3387 248.636 39.936C249.233 40.512 250.055 40.8 251.1 40.8ZM263.152 44V26.4H267.056V29.76H268.144L267.056 30.688C267.056 29.2373 267.472 28.1067 268.304 27.296C269.157 26.4853 270.32 26.08 271.792 26.08C273.52 26.08 274.896 26.656 275.92 27.808C276.965 28.96 277.488 30.5067 277.488 32.448V44H273.488V32.864C273.488 31.7973 273.21 30.976 272.656 30.4C272.101 29.824 271.322 29.536 270.32 29.536C269.338 29.536 268.56 29.8347 267.984 30.432C267.429 31.0293 267.152 31.8827 267.152 32.992V44H263.152ZM280.995 44L286.883 20.64H292.035L297.955 44H293.859L292.579 38.336H286.371L285.091 44H280.995ZM287.107 35.072H291.843L290.435 28.8C290.2 27.7547 289.998 26.816 289.827 25.984C289.656 25.1307 289.539 24.512 289.475 24.128C289.411 24.512 289.294 25.1307 289.123 25.984C288.974 26.816 288.771 27.744 288.515 28.768L287.107 35.072ZM301.527 44V20.64H309.303C310.86 20.64 312.215 20.9387 313.367 21.536C314.54 22.1333 315.447 22.976 316.087 24.064C316.727 25.1307 317.047 26.3893 317.047 27.84C317.047 29.2693 316.716 30.528 316.055 31.616C315.415 32.704 314.519 33.5467 313.367 34.144C312.215 34.7413 310.86 35.04 309.303 35.04H305.527V44H301.527ZM305.527 31.424H309.303C310.412 31.424 311.297 31.104 311.959 30.464C312.641 29.8027 312.983 28.928 312.983 27.84C312.983 26.7307 312.641 25.856 311.959 25.216C311.297 24.576 310.412 24.256 309.303 24.256H305.527V31.424ZM321.13 44V40.48H325.834V24.16H321.13V20.64H334.57V24.16H329.866V40.48H334.57V44H321.13Z" fill="white"/>
</g>
</g>
<defs>
<filter id="filter0_d_418_41" x="29" y="6" width="51.6786" height="60.6236" filterUnits="userSpaceOnUse" color-interpolation-filters="sRGB">
<feFlood flood-opacity="0" result="BackgroundImageFix"/>
<feColorMatrix in="SourceAlpha" type="matrix" values="0 0 0 0 0 0 0 0 0 0 0 0 0 0 0 0 0 0 127 0" result="hardAlpha"/>
<feOffset dy="4"/>
<feGaussianBlur stdDeviation="2"/>
<feComposite in2="hardAlpha" operator="out"/>
<feColorMatrix type="matrix" values="0 0 0 0 0 0 0 0 0 0 0 0 0 0 0 0 0 0 0.25 0"/>
<feBlend mode="normal" in2="BackgroundImageFix" result="effect1_dropShadow_418_41"/>
<feBlend mode="normal" in="SourceGraphic" in2="effect1_dropShadow_418_41" result="shape"/>
</filter>
<filter id="filter1_d_418_41" x="86.304" y="18.848" width="252.266" height="33.472" filterUnits="userSpaceOnUse" color-interpolation-filters="sRGB">
<feFlood flood-opacity="0" result="BackgroundImageFix"/>
<feColorMatrix in="SourceAlpha" type="matrix" values="0 0 0 0 0 0 0 0 0 0 0 0 0 0 0 0 0 0 127 0" result="hardAlpha"/>
<feOffset dy="4"/>
<feGaussianBlur stdDeviation="2"/>
<feComposite in2="hardAlpha" operator="out"/>
<feColorMatrix type="matrix" values="0 0 0 0 0 0 0 0 0 0 0 0 0 0 0 0 0 0 0.25 0"/>
<feBlend mode="normal" in2="BackgroundImageFix" result="effect1_dropShadow_418_41"/>
<feBlend mode="normal" in="SourceGraphic" in2="effect1_dropShadow_418_41" result="shape"/>
</filter>
<linearGradient id="paint0_linear_418_41" x1="54.8393" y1="6" x2="54.8393" y2="58.6236" gradientUnits="userSpaceOnUse">
<stop stop-color="#4200FF"/>
<stop offset="1" stop-color="#00A3FF"/>
</linearGradient>
<clipPath id="clip0_418_41">
<rect width="371" height="64" fill="white"/>
</clipPath>
</defs>
</svg>
