<svg width="390" height="64" viewBox="0 0 390 64" fill="none" xmlns="http://www.w3.org/2000/svg">
<g clip-path="url(#clip0_418_41)">
<g filter="url(#filter0_d_418_41)">
<path fill-rule="evenodd" clip-rule="evenodd" d="M27.8175 5.92914C28.0217 5.41599 28.6032 5.16552 29.1163 5.3697L35.6314 7.96203C36.1445 8.16621 36.395 8.74773 36.1908 9.26089L32.2292 19.217L39.7652 22.2156L43.7268 12.2595C43.931 11.7463 44.5125 11.4959 45.0256 11.7L51.5407 14.2924C52.0538 14.4966 52.3043 15.0781 52.1001 15.5912L48.1385 25.5473L53.0707 27.5099C53.5839 27.7141 53.8344 28.2956 53.6302 28.8087L46.3369 47.1382C44.7359 51.1615 37.2978 52.0946 28.8436 49.6638L25.8085 57.2917C25.6043 57.8048 25.0228 58.0553 24.5096 57.8511L18.832 55.592C18.3188 55.3878 18.0683 54.8062 18.2725 54.2931L21.3076 46.6653C13.4945 42.6232 8.73075 36.835 10.3317 32.8117L10.337 32.7983L17.625 14.4822C17.8292 13.9691 18.4107 13.7186 18.9238 13.9228L23.8559 15.8853L27.8175 5.92914Z" fill="url(#paint0_linear_418_41)"/>
</g>
<g filter="url(#filter1_d_418_41)">
<path d="M72.728 44.32C71.2347 44.32 69.9227 44.0427 68.792 43.488C67.6827 42.912 66.8187 42.112 66.2 41.088C65.6027 40.0427 65.304 38.816 65.304 37.408V27.232C65.304 25.8027 65.6027 24.576 66.2 23.552C66.8187 22.528 67.6827 21.7387 68.792 21.184C69.9227 20.608 71.2347 20.32 72.728 20.32C74.2427 20.32 75.544 20.608 76.632 21.184C77.7413 21.7387 78.6053 22.528 79.224 23.552C79.8427 24.576 80.152 25.8027 80.152 27.232H76.12C76.12 26.1227 75.8213 25.28 75.224 24.704C74.648 24.128 73.816 23.84 72.728 23.84C71.64 23.84 70.7973 24.128 70.2 24.704C69.6027 25.28 69.304 26.112 69.304 27.2V37.408C69.304 38.496 69.6027 39.3387 70.2 39.936C70.7973 40.512 71.64 40.8 72.728 40.8C73.816 40.8 74.648 40.512 75.224 39.936C75.8213 39.3387 76.12 38.496 76.12 37.408H80.152C80.152 38.7947 79.8427 40.0107 79.224 41.056C78.6053 42.1013 77.7413 42.912 76.632 43.488C75.544 44.0427 74.2427 44.32 72.728 44.32ZM91.7875 44.288C90.2942 44.288 88.9928 44.0107 87.8835 43.456C86.7955 42.88 85.9422 42.08 85.3235 41.056C84.7262 40.0107 84.4275 38.784 84.4275 37.376V33.024C84.4275 31.616 84.7262 30.4 85.3235 29.376C85.9422 28.3307 86.7955 27.5307 87.8835 26.976C88.9928 26.4 90.2942 26.112 91.7875 26.112C93.3022 26.112 94.6035 26.4 95.6915 26.976C96.7795 27.5307 97.6222 28.3307 98.2195 29.376C98.8382 30.4 99.1475 31.6053 99.1475 32.992V37.376C99.1475 38.784 98.8382 40.0107 98.2195 41.056C97.6222 42.08 96.7795 42.88 95.6915 43.456C94.6035 44.0107 93.3022 44.288 91.7875 44.288ZM91.7875 40.8C92.8542 40.8 93.6755 40.512 94.2515 39.936C94.8488 39.3387 95.1475 38.4853 95.1475 37.376V33.024C95.1475 31.8933 94.8488 31.04 94.2515 30.464C93.6755 29.888 92.8542 29.6 91.7875 29.6C90.7422 29.6 89.9208 29.888 89.3235 30.464C88.7262 31.04 88.4275 31.8933 88.4275 33.024V37.376C88.4275 38.4853 88.7262 39.3387 89.3235 39.936C89.9208 40.512 90.7422 40.8 91.7875 40.8ZM103.839 44V26.4H107.743V29.76H108.831L107.743 30.688C107.743 29.2373 108.159 28.1067 108.991 27.296C109.844 26.4853 111.007 26.08 112.479 26.08C114.207 26.08 115.583 26.656 116.607 27.808C117.652 28.96 118.175 30.5067 118.175 32.448V44H114.175V32.864C114.175 31.7973 113.898 30.976 113.343 30.4C112.788 29.824 112.01 29.536 111.007 29.536C110.026 29.536 109.247 29.8347 108.671 30.432C108.116 31.0293 107.839 31.8827 107.839 32.992V44H103.839ZM123.027 44V26.4H126.931V29.76H128.019L126.931 30.688C126.931 29.2373 127.347 28.1067 128.179 27.296C129.032 26.4853 130.195 26.08 131.667 26.08C133.395 26.08 134.771 26.656 135.795 27.808C136.84 28.96 137.363 30.5067 137.363 32.448V44H133.363V32.864C133.363 31.7973 133.085 30.976 132.531 30.4C131.976 29.824 131.197 29.536 130.195 29.536C129.213 29.536 128.435 29.8347 127.859 30.432C127.304 31.0293 127.027 31.8827 127.027 32.992V44H123.027ZM149.382 44.32C147.889 44.32 146.587 44.032 145.478 43.456C144.369 42.88 143.505 42.08 142.886 41.056C142.289 40.0107 141.99 38.7947 141.99 37.408V32.992C141.99 31.6053 142.289 30.4 142.886 29.376C143.505 28.3307 144.369 27.52 145.478 26.944C146.587 26.368 147.889 26.08 149.382 26.08C150.854 26.08 152.134 26.368 153.222 26.944C154.331 27.52 155.185 28.3307 155.782 29.376C156.401 30.4 156.71 31.6053 156.71 32.992V36.16H145.862V37.408C145.862 38.6453 146.161 39.584 146.758 40.224C147.355 40.8427 148.241 41.152 149.414 41.152C150.31 41.152 151.035 41.0027 151.59 40.704C152.145 40.384 152.497 39.9253 152.646 39.328H156.582C156.283 40.8427 155.473 42.0587 154.15 42.976C152.849 43.872 151.259 44.32 149.382 44.32ZM152.838 33.92V32.96C152.838 31.744 152.55 30.816 151.974 30.176C151.398 29.5147 150.534 29.184 149.382 29.184C148.23 29.184 147.355 29.5147 146.758 30.176C146.161 30.8373 145.862 31.776 145.862 32.992V33.664L153.126 33.6L152.838 33.92ZM168.634 44.32C167.14 44.32 165.828 44.0427 164.698 43.488C163.588 42.912 162.724 42.112 162.106 41.088C161.487 40.0427 161.178 38.816 161.178 37.408V32.992C161.178 31.5627 161.487 30.336 162.106 29.312C162.724 28.288 163.588 27.4987 164.698 26.944C165.828 26.368 167.14 26.08 168.634 26.08C170.852 26.08 172.623 26.656 173.946 27.808C175.268 28.9387 175.962 30.4853 176.026 32.448H172.026C171.962 31.5307 171.631 30.8267 171.034 30.336C170.458 29.824 169.658 29.568 168.634 29.568C167.567 29.568 166.724 29.8667 166.106 30.464C165.487 31.04 165.178 31.872 165.178 32.96V37.408C165.178 38.496 165.487 39.3387 166.106 39.936C166.724 40.5333 167.567 40.832 168.634 40.832C169.658 40.832 170.458 40.5867 171.034 40.096C171.631 39.584 171.962 38.8693 172.026 37.952H176.026C175.962 39.9147 175.268 41.472 173.946 42.624C172.623 43.7547 170.852 44.32 168.634 44.32ZM189.645 44C187.96 44 186.637 43.5307 185.677 42.592C184.738 41.6533 184.269 40.3627 184.269 38.72V30.016H179.501V26.4H184.269V21.44H188.301V26.4H195.053V30.016H188.301V38.72C188.301 39.8293 188.845 40.384 189.933 40.384H194.733V44H189.645ZM199.745 44V40.352H205.889V30.016H200.545V26.4H209.729V40.352H215.169V44H199.745ZM207.489 23.456C206.678 23.456 206.038 23.2533 205.569 22.848C205.099 22.4213 204.865 21.856 204.865 21.152C204.865 20.448 205.099 19.8933 205.569 19.488C206.038 19.0613 206.678 18.848 207.489 18.848C208.299 18.848 208.939 19.0613 209.409 19.488C209.878 19.8933 210.113 20.448 210.113 21.152C210.113 21.856 209.878 22.4213 209.409 22.848C208.939 23.2533 208.299 23.456 207.489 23.456ZM226.1 44.288C224.607 44.288 223.305 44.0107 222.196 43.456C221.108 42.88 220.255 42.08 219.636 41.056C219.039 40.0107 218.74 38.784 218.74 37.376V33.024C218.74 31.616 219.039 30.4 219.636 29.376C220.255 28.3307 221.108 27.5307 222.196 26.976C223.305 26.4 224.607 26.112 226.1 26.112C227.615 26.112 228.916 26.4 230.004 26.976C231.092 27.5307 231.935 28.3307 232.532 29.376C233.151 30.4 233.46 31.6053 233.46 32.992V37.376C233.46 38.784 233.151 40.0107 232.532 41.056C231.935 42.08 231.092 42.88 230.004 43.456C228.916 44.0107 227.615 44.288 226.1 44.288ZM226.1 40.8C227.167 40.8 227.988 40.512 228.564 39.936C229.161 39.3387 229.46 38.4853 229.46 37.376V33.024C229.46 31.8933 229.161 31.04 228.564 30.464C227.988 29.888 227.167 29.6 226.1 29.6C225.055 29.6 224.233 29.888 223.636 30.464C223.039 31.04 222.74 31.8933 222.74 33.024V37.376C222.74 38.4853 223.039 39.3387 223.636 39.936C224.233 40.512 225.055 40.8 226.1 40.8ZM238.152 44V26.4H242.056V29.76H243.144L242.056 30.688C242.056 29.2373 242.472 28.1067 243.304 27.296C244.157 26.4853 245.32 26.08 246.792 26.08C248.52 26.08 249.896 26.656 250.92 27.808C251.965 28.96 252.488 30.5067 252.488 32.448V44H248.488V32.864C248.488 31.7973 248.21 30.976 247.656 30.4C247.101 29.824 246.322 29.536 245.32 29.536C244.338 29.536 243.56 29.8347 242.984 30.432C242.429 31.0293 242.152 31.8827 242.152 32.992V44H238.152ZM255.995 44L261.883 20.64H267.035L272.955 44H268.859L267.579 38.336H261.371L260.091 44H255.995ZM262.107 35.072H266.843L265.435 28.8C265.2 27.7547 264.998 26.816 264.827 25.984C264.656 25.1307 264.539 24.512 264.475 24.128C264.411 24.512 264.294 25.1307 264.123 25.984C263.974 26.816 263.771 27.744 263.515 28.768L262.107 35.072ZM276.527 44V20.64H284.303C285.86 20.64 287.215 20.9387 288.367 21.536C289.54 22.1333 290.447 22.976 291.087 24.064C291.727 25.1307 292.047 26.3893 292.047 27.84C292.047 29.2693 291.716 30.528 291.055 31.616C290.415 32.704 289.519 33.5467 288.367 34.144C287.215 34.7413 285.86 35.04 284.303 35.04H280.527V44H276.527ZM280.527 31.424H284.303C285.412 31.424 286.297 31.104 286.959 30.464C287.641 29.8027 287.983 28.928 287.983 27.84C287.983 26.7307 287.641 25.856 286.959 25.216C286.297 24.576 285.412 24.256 284.303 24.256H280.527V31.424ZM296.13 44V40.48H300.834V24.16H296.13V20.64H309.57V24.16H304.866V40.48H309.57V44H296.13Z" fill="white"/>
</g>
</g>
<defs>
<filter id="filter0_d_418_41" x="6.02271" y="5.29858" width="51.6786" height="60.6236" filterUnits="userSpaceOnUse" color-interpolation-filters="sRGB">
<feFlood flood-opacity="0" result="BackgroundImageFix"/>
<feColorMatrix in="SourceAlpha" type="matrix" values="0 0 0 0 0 0 0 0 0 0 0 0 0 0 0 0 0 0 127 0" result="hardAlpha"/>
<feOffset dy="4"/>
<feGaussianBlur stdDeviation="2"/>
<feComposite in2="hardAlpha" operator="out"/>
<feColorMatrix type="matrix" values="0 0 0 0 0 0 0 0 0 0 0 0 0 0 0 0 0 0 0.25 0"/>
<feBlend mode="normal" in2="BackgroundImageFix" result="effect1_dropShadow_418_41"/>
<feBlend mode="normal" in="SourceGraphic" in2="effect1_dropShadow_418_41" result="shape"/>
</filter>
<filter id="filter1_d_418_41" x="61.304" y="18.848" width="252.266" height="33.472" filterUnits="userSpaceOnUse" color-interpolation-filters="sRGB">
<feFlood flood-opacity="0" result="BackgroundImageFix"/>
<feColorMatrix in="SourceAlpha" type="matrix" values="0 0 0 0 0 0 0 0 0 0 0 0 0 0 0 0 0 0 127 0" result="hardAlpha"/>
<feOffset dy="4"/>
<feGaussianBlur stdDeviation="2"/>
<feComposite in2="hardAlpha" operator="out"/>
<feColorMatrix type="matrix" values="0 0 0 0 0 0 0 0 0 0 0 0 0 0 0 0 0 0 0.25 0"/>
<feBlend mode="normal" in2="BackgroundImageFix" result="effect1_dropShadow_418_41"/>
<feBlend mode="normal" in="SourceGraphic" in2="effect1_dropShadow_418_41" result="shape"/>
</filter>
<linearGradient id="paint0_linear_418_41" x1="31.862" y1="5.29858" x2="31.862" y2="57.9222" gradientUnits="userSpaceOnUse">
<stop stop-color="#4200FF"/>
<stop offset="1" stop-color="#00A3FF"/>
</linearGradient>
<clipPath id="clip0_418_41">
<rect width="390" height="64" fill="white"/>
</clipPath>
</defs>
</svg>
